<mxfile host="app.diagrams.net" modified="2022-09-19T07:07:44.373Z" agent="5.0 (Windows NT 10.0; Win64; x64) AppleWebKit/537.36 (KHTML, like Gecko) Chrome/104.0.0.0 Safari/537.36" etag="q_W6Tm0ZealcBagCpst4" version="20.3.0" type="github" pages="3">
  <diagram id="zKQUjX-WyqfGB3lvkIPg" name="第 1 页">
    <mxGraphModel dx="1422" dy="828" grid="1" gridSize="10" guides="1" tooltips="1" connect="1" arrows="1" fold="1" page="1" pageScale="1" pageWidth="827" pageHeight="1169" math="0" shadow="0">
      <root>
        <mxCell id="0" />
        <mxCell id="1" parent="0" />
        <mxCell id="ssKkcry0jvocZaCQyeUG-3" value="" style="triangle;whiteSpace=wrap;html=1;rotation=-90;" parent="1" vertex="1">
          <mxGeometry x="160" y="170" width="345" height="450" as="geometry" />
        </mxCell>
        <mxCell id="ssKkcry0jvocZaCQyeUG-8" value="" style="endArrow=none;html=1;rounded=0;entryX=0.225;entryY=0.883;entryDx=0;entryDy=0;entryPerimeter=0;exitX=0.229;exitY=0.121;exitDx=0;exitDy=0;exitPerimeter=0;" parent="1" source="ssKkcry0jvocZaCQyeUG-3" target="ssKkcry0jvocZaCQyeUG-3" edge="1">
          <mxGeometry width="50" height="50" relative="1" as="geometry">
            <mxPoint x="170" y="490" as="sourcePoint" />
            <mxPoint x="482.5" y="500" as="targetPoint" />
          </mxGeometry>
        </mxCell>
        <mxCell id="ssKkcry0jvocZaCQyeUG-9" value="" style="endArrow=none;html=1;rounded=0;" parent="1" edge="1">
          <mxGeometry width="50" height="50" relative="1" as="geometry">
            <mxPoint x="450" y="410" as="sourcePoint" />
            <mxPoint x="210" y="410" as="targetPoint" />
            <Array as="points">
              <mxPoint x="310" y="410" />
            </Array>
          </mxGeometry>
        </mxCell>
        <mxCell id="ssKkcry0jvocZaCQyeUG-10" value="&lt;div style=&quot;text-align: left; line-height: 1.75; font-size: 14px;&quot;&gt;大局观、付出、信任、三观正、勇于决断、共情、责任和担当 、不畏困难&lt;/div&gt;" style="text;html=1;strokeColor=none;fillColor=none;align=center;verticalAlign=middle;whiteSpace=wrap;rounded=0;" parent="1" vertex="1">
          <mxGeometry x="217.5" y="520" width="230" height="30" as="geometry" />
        </mxCell>
        <mxCell id="ssKkcry0jvocZaCQyeUG-11" value="&lt;div style=&quot;text-align: left; line-height: 1.75; font-size: 14px;&quot;&gt;学习能力、总结能力、扎实的专业能力、有情商、构建系统的能力&lt;/div&gt;" style="text;html=1;strokeColor=none;fillColor=none;align=center;verticalAlign=middle;whiteSpace=wrap;rounded=0;" parent="1" vertex="1">
          <mxGeometry x="222.5" y="440" width="220" height="30" as="geometry" />
        </mxCell>
        <mxCell id="ssKkcry0jvocZaCQyeUG-12" value="&lt;div style=&quot;text-align: left; line-height: 1.75; font-size: 14px;&quot;&gt;感召力、知行合一、赏罚分明、协调能力、组织能力、人才培养、执行力&lt;/div&gt;" style="text;html=1;strokeColor=none;fillColor=none;align=center;verticalAlign=middle;whiteSpace=wrap;rounded=0;" parent="1" vertex="1">
          <mxGeometry x="274" y="340" width="140" height="30" as="geometry" />
        </mxCell>
        <mxCell id="ssKkcry0jvocZaCQyeUG-13" value="行动力（体）" style="text;html=1;strokeColor=none;fillColor=none;align=center;verticalAlign=middle;whiteSpace=wrap;rounded=0;fontStyle=1" parent="1" vertex="1">
          <mxGeometry x="20" y="280" width="60" height="30" as="geometry" />
        </mxCell>
        <mxCell id="ssKkcry0jvocZaCQyeUG-14" value="思维力（脑）" style="text;html=1;strokeColor=none;fillColor=none;align=center;verticalAlign=middle;whiteSpace=wrap;rounded=0;fontStyle=1" parent="1" vertex="1">
          <mxGeometry x="20" y="420" width="60" height="30" as="geometry" />
        </mxCell>
        <mxCell id="ssKkcry0jvocZaCQyeUG-15" value="觉察力（心）" style="text;html=1;strokeColor=none;fillColor=none;align=center;verticalAlign=middle;whiteSpace=wrap;rounded=0;fontStyle=1" parent="1" vertex="1">
          <mxGeometry x="20" y="520" width="60" height="30" as="geometry" />
        </mxCell>
        <mxCell id="ssKkcry0jvocZaCQyeUG-21" value="实践" style="text;html=1;strokeColor=none;fillColor=none;align=center;verticalAlign=middle;whiteSpace=wrap;rounded=0;fontStyle=1" parent="1" vertex="1">
          <mxGeometry x="580" y="280" width="60" height="30" as="geometry" />
        </mxCell>
        <mxCell id="ssKkcry0jvocZaCQyeUG-22" value="训练" style="text;html=1;strokeColor=none;fillColor=none;align=center;verticalAlign=middle;whiteSpace=wrap;rounded=0;fontStyle=1" parent="1" vertex="1">
          <mxGeometry x="580" y="420" width="60" height="30" as="geometry" />
        </mxCell>
        <mxCell id="ssKkcry0jvocZaCQyeUG-23" value="觉察" style="text;html=1;strokeColor=none;fillColor=none;align=center;verticalAlign=middle;whiteSpace=wrap;rounded=0;fontStyle=1" parent="1" vertex="1">
          <mxGeometry x="590" y="510" width="60" height="30" as="geometry" />
        </mxCell>
        <mxCell id="ssKkcry0jvocZaCQyeUG-25" value="" style="endArrow=classic;html=1;rounded=0;" parent="1" edge="1">
          <mxGeometry width="50" height="50" relative="1" as="geometry">
            <mxPoint x="105" y="294.5" as="sourcePoint" />
            <mxPoint x="160" y="294.5" as="targetPoint" />
          </mxGeometry>
        </mxCell>
        <mxCell id="ssKkcry0jvocZaCQyeUG-26" value="" style="endArrow=classic;html=1;rounded=0;" parent="1" edge="1">
          <mxGeometry width="50" height="50" relative="1" as="geometry">
            <mxPoint x="520" y="294.5" as="sourcePoint" />
            <mxPoint x="575" y="294.5" as="targetPoint" />
          </mxGeometry>
        </mxCell>
        <mxCell id="ssKkcry0jvocZaCQyeUG-27" value="" style="endArrow=classic;html=1;rounded=0;" parent="1" edge="1">
          <mxGeometry width="50" height="50" relative="1" as="geometry">
            <mxPoint x="100" y="434.5" as="sourcePoint" />
            <mxPoint x="155" y="434.5" as="targetPoint" />
          </mxGeometry>
        </mxCell>
        <mxCell id="ssKkcry0jvocZaCQyeUG-28" value="" style="endArrow=classic;html=1;rounded=0;" parent="1" edge="1">
          <mxGeometry width="50" height="50" relative="1" as="geometry">
            <mxPoint x="90" y="535" as="sourcePoint" />
            <mxPoint x="120" y="535" as="targetPoint" />
          </mxGeometry>
        </mxCell>
        <mxCell id="ssKkcry0jvocZaCQyeUG-29" value="" style="endArrow=classic;html=1;rounded=0;" parent="1" edge="1">
          <mxGeometry width="50" height="50" relative="1" as="geometry">
            <mxPoint x="560" y="524.5" as="sourcePoint" />
            <mxPoint x="590" y="524.5" as="targetPoint" />
          </mxGeometry>
        </mxCell>
        <mxCell id="ssKkcry0jvocZaCQyeUG-30" value="" style="endArrow=classic;html=1;rounded=0;" parent="1" edge="1">
          <mxGeometry width="50" height="50" relative="1" as="geometry">
            <mxPoint x="535" y="434.5" as="sourcePoint" />
            <mxPoint x="590" y="434.5" as="targetPoint" />
          </mxGeometry>
        </mxCell>
      </root>
    </mxGraphModel>
  </diagram>
  <diagram id="2JbcnpAYA8VkibhLV8vb" name="第 2 页">
    <mxGraphModel dx="1422" dy="828" grid="1" gridSize="10" guides="1" tooltips="1" connect="1" arrows="1" fold="1" page="1" pageScale="1" pageWidth="827" pageHeight="1169" math="0" shadow="0">
      <root>
        <mxCell id="0" />
        <mxCell id="1" parent="0" />
        <mxCell id="iUxnVzqD_60CrnqgzpHa-2" value="" style="ellipse;whiteSpace=wrap;html=1;aspect=fixed;align=left;fillColor=#f5f5f5;strokeColor=#666666;fontColor=#333333;" vertex="1" parent="1">
          <mxGeometry x="70" y="310" width="420" height="420" as="geometry" />
        </mxCell>
        <mxCell id="iUxnVzqD_60CrnqgzpHa-1" value="" style="ellipse;whiteSpace=wrap;html=1;aspect=fixed;fillColor=#dae8fc;strokeColor=#6c8ebf;" vertex="1" parent="1">
          <mxGeometry x="150" y="390" width="260" height="260" as="geometry" />
        </mxCell>
        <mxCell id="iUxnVzqD_60CrnqgzpHa-4" value="外用" style="text;html=1;strokeColor=none;fillColor=none;align=center;verticalAlign=middle;whiteSpace=wrap;rounded=0;fontStyle=1;fontSize=20;" vertex="1" parent="1">
          <mxGeometry x="243" y="320" width="98" height="30" as="geometry" />
        </mxCell>
        <mxCell id="iUxnVzqD_60CrnqgzpHa-5" value="内服" style="text;html=1;strokeColor=none;fillColor=none;align=center;verticalAlign=middle;whiteSpace=wrap;rounded=0;fontStyle=1;fontSize=20;" vertex="1" parent="1">
          <mxGeometry x="243" y="400" width="98" height="30" as="geometry" />
        </mxCell>
        <mxCell id="iUxnVzqD_60CrnqgzpHa-6" value="为了提升价值感 (自尊)&lt;br&gt;&lt;br&gt;为了增强归属感(亲情/爱情/友情)&lt;br&gt;&lt;br&gt;为了增强安全感&lt;br&gt;&lt;br&gt;为了自我掌控感(自主/自由)&lt;br&gt;&lt;br&gt;被同情心激发（爱人）" style="text;html=1;strokeColor=none;fillColor=none;align=left;verticalAlign=middle;whiteSpace=wrap;rounded=0;strokeWidth=2;horizontal=1;spacingTop=5;spacing=4;spacingLeft=2;" vertex="1" parent="1">
          <mxGeometry x="194" y="440" width="196" height="130" as="geometry" />
        </mxCell>
        <mxCell id="iUxnVzqD_60CrnqgzpHa-7" value="为了成就(功)&amp;nbsp; &amp;nbsp; &amp;nbsp; &amp;nbsp; &amp;nbsp;" style="text;html=1;strokeColor=none;fillColor=none;align=center;verticalAlign=middle;whiteSpace=wrap;rounded=0;strokeWidth=2;horizontal=1;flipH=1;flipV=1;direction=east;rotation=-65;" vertex="1" parent="1">
          <mxGeometry x="60.00000000000006" y="440" width="109.57" height="64.51" as="geometry" />
        </mxCell>
        <mxCell id="iUxnVzqD_60CrnqgzpHa-12" value="为了地位（名）" style="text;html=1;strokeColor=none;fillColor=none;align=center;verticalAlign=middle;whiteSpace=wrap;rounded=0;strokeWidth=2;rotation=-15;" vertex="1" parent="1">
          <mxGeometry x="150" y="370" width="130" height="30" as="geometry" />
        </mxCell>
        <mxCell id="iUxnVzqD_60CrnqgzpHa-13" value="为了财富（利)&amp;nbsp;" style="text;html=1;strokeColor=none;fillColor=none;align=center;verticalAlign=middle;whiteSpace=wrap;rounded=0;strokeWidth=2;rotation=45;" vertex="1" parent="1">
          <mxGeometry x="330" y="390" width="130" height="30" as="geometry" />
        </mxCell>
        <mxCell id="iUxnVzqD_60CrnqgzpHa-14" value="为了活得久(禄)" style="text;html=1;strokeColor=none;fillColor=none;align=center;verticalAlign=middle;whiteSpace=wrap;rounded=0;strokeWidth=2;rotation=75;" vertex="1" parent="1">
          <mxGeometry x="390" y="500" width="130" height="30" as="geometry" />
        </mxCell>
        <mxCell id="iUxnVzqD_60CrnqgzpHa-15" value="" style="ellipse;whiteSpace=wrap;html=1;aspect=fixed;align=left;" vertex="1" parent="1">
          <mxGeometry x="830" y="310" width="420" height="420" as="geometry" />
        </mxCell>
        <mxCell id="iUxnVzqD_60CrnqgzpHa-16" value="" style="ellipse;whiteSpace=wrap;html=1;aspect=fixed;fillColor=#dae8fc;strokeColor=#6c8ebf;" vertex="1" parent="1">
          <mxGeometry x="910" y="390" width="260" height="260" as="geometry" />
        </mxCell>
        <mxCell id="iUxnVzqD_60CrnqgzpHa-17" value="外用物" style="text;html=1;strokeColor=none;fillColor=none;align=center;verticalAlign=middle;whiteSpace=wrap;rounded=0;" vertex="1" parent="1">
          <mxGeometry x="1022" y="320" width="60" height="30" as="geometry" />
        </mxCell>
        <mxCell id="iUxnVzqD_60CrnqgzpHa-18" value="获得内用" style="text;html=1;strokeColor=none;fillColor=none;align=center;verticalAlign=middle;whiteSpace=wrap;rounded=0;fontStyle=1" vertex="1" parent="1">
          <mxGeometry x="1014" y="410" width="60" height="30" as="geometry" />
        </mxCell>
        <mxCell id="iUxnVzqD_60CrnqgzpHa-19" value="为了提升价值感 (自尊)&lt;br&gt;&lt;br&gt;为了增强归属感(亲情/爱情/友情)&lt;br&gt;&lt;br&gt;为了增强安全感&lt;br&gt;&lt;br&gt;为了自我掌控感(自主/自由)&lt;br&gt;&lt;br&gt;被同情心激励" style="text;html=1;strokeColor=none;fillColor=none;align=center;verticalAlign=middle;whiteSpace=wrap;rounded=0;strokeWidth=2;horizontal=1;spacingTop=5;spacing=4;spacingLeft=2;" vertex="1" parent="1">
          <mxGeometry x="954" y="440" width="196" height="130" as="geometry" />
        </mxCell>
        <mxCell id="iUxnVzqD_60CrnqgzpHa-20" value="为了成就(功)&amp;nbsp; &amp;nbsp; &amp;nbsp; &amp;nbsp; &amp;nbsp;" style="text;html=1;strokeColor=none;fillColor=none;align=center;verticalAlign=middle;whiteSpace=wrap;rounded=0;strokeWidth=2;horizontal=1;flipH=1;flipV=1;direction=east;rotation=-65;" vertex="1" parent="1">
          <mxGeometry x="827" y="450" width="109.57" height="64.51" as="geometry" />
        </mxCell>
        <mxCell id="iUxnVzqD_60CrnqgzpHa-21" value="为了地位（名）" style="text;html=1;strokeColor=none;fillColor=none;align=center;verticalAlign=middle;whiteSpace=wrap;rounded=0;strokeWidth=2;rotation=-15;" vertex="1" parent="1">
          <mxGeometry x="910" y="370" width="130" height="30" as="geometry" />
        </mxCell>
        <mxCell id="iUxnVzqD_60CrnqgzpHa-22" value="为了财富（利)&amp;nbsp;" style="text;html=1;strokeColor=none;fillColor=none;align=center;verticalAlign=middle;whiteSpace=wrap;rounded=0;strokeWidth=2;rotation=45;" vertex="1" parent="1">
          <mxGeometry x="1090" y="390" width="130" height="30" as="geometry" />
        </mxCell>
        <mxCell id="iUxnVzqD_60CrnqgzpHa-23" value="为了活得久(禄)" style="text;html=1;strokeColor=none;fillColor=none;align=center;verticalAlign=middle;whiteSpace=wrap;rounded=0;strokeWidth=2;rotation=75;" vertex="1" parent="1">
          <mxGeometry x="1150" y="500" width="130" height="30" as="geometry" />
        </mxCell>
        <mxCell id="iUxnVzqD_60CrnqgzpHa-24" value="" style="shape=flexArrow;endArrow=classic;html=1;rounded=0;fontSize=20;" edge="1" parent="1">
          <mxGeometry width="50" height="50" relative="1" as="geometry">
            <mxPoint x="570" y="514.5" as="sourcePoint" />
            <mxPoint x="720" y="514.5" as="targetPoint" />
          </mxGeometry>
        </mxCell>
        <mxCell id="iUxnVzqD_60CrnqgzpHa-27" value="获得" style="edgeLabel;html=1;align=left;verticalAlign=bottom;resizable=0;points=[];fontSize=20;" vertex="1" connectable="0" parent="iUxnVzqD_60CrnqgzpHa-24">
          <mxGeometry x="-0.2667" y="7" relative="1" as="geometry">
            <mxPoint y="1" as="offset" />
          </mxGeometry>
        </mxCell>
        <mxCell id="iUxnVzqD_60CrnqgzpHa-25" value="驱动力" style="text;html=1;strokeColor=none;fillColor=none;align=center;verticalAlign=middle;whiteSpace=wrap;rounded=0;strokeWidth=2;fontSize=20;" vertex="1" parent="1">
          <mxGeometry x="194" y="250" width="180" height="30" as="geometry" />
        </mxCell>
        <mxCell id="iUxnVzqD_60CrnqgzpHa-26" value="有用" style="text;html=1;strokeColor=none;fillColor=none;align=center;verticalAlign=middle;whiteSpace=wrap;rounded=0;strokeWidth=2;fontSize=20;" vertex="1" parent="1">
          <mxGeometry x="954" y="780" width="180" height="30" as="geometry" />
        </mxCell>
      </root>
    </mxGraphModel>
  </diagram>
  <diagram id="cgTMIaqABvfnYE-RTPSR" name="第 3 页">
    <mxGraphModel dx="3076" dy="828" grid="1" gridSize="10" guides="1" tooltips="1" connect="1" arrows="1" fold="1" page="1" pageScale="1" pageWidth="827" pageHeight="1169" math="0" shadow="0">
      <root>
        <mxCell id="0" />
        <mxCell id="1" parent="0" />
        <mxCell id="L_Ru3bllDBfx2HvgcXNk-22" value="有用" style="text;html=1;strokeColor=none;fillColor=none;align=center;verticalAlign=middle;whiteSpace=wrap;rounded=0;strokeWidth=2;fontSize=20;" vertex="1" parent="1">
          <mxGeometry x="954" y="780" width="180" height="30" as="geometry" />
        </mxCell>
        <mxCell id="L_Ru3bllDBfx2HvgcXNk-23" value="" style="group" vertex="1" connectable="0" parent="1">
          <mxGeometry x="-370.6" y="420" width="417.6" height="400" as="geometry" />
        </mxCell>
        <mxCell id="L_Ru3bllDBfx2HvgcXNk-1" value="" style="ellipse;whiteSpace=wrap;html=1;aspect=fixed;align=left;fillColor=#f5f5f5;strokeColor=#666666;fontColor=#333333;" vertex="1" parent="L_Ru3bllDBfx2HvgcXNk-23">
          <mxGeometry x="7.423318151856822" width="373.4208342647989" height="373.4208342647989" as="geometry" />
        </mxCell>
        <mxCell id="L_Ru3bllDBfx2HvgcXNk-2" value="" style="ellipse;whiteSpace=wrap;html=1;aspect=fixed;fillColor=#dae8fc;strokeColor=#6c8ebf;" vertex="1" parent="L_Ru3bllDBfx2HvgcXNk-23">
          <mxGeometry x="85.55220993245553" y="76.19047619047618" width="231.16527835439933" height="231.16527835439933" as="geometry" />
        </mxCell>
        <mxCell id="L_Ru3bllDBfx2HvgcXNk-3" value="外用强体" style="text;html=1;strokeColor=none;fillColor=none;align=center;verticalAlign=middle;whiteSpace=wrap;rounded=0;fontStyle=1;fontSize=20;" vertex="1" parent="L_Ru3bllDBfx2HvgcXNk-23">
          <mxGeometry x="146.2770466274015" y="9.523809523809522" width="95.70789243123338" height="28.57142857142857" as="geometry" />
        </mxCell>
        <mxCell id="L_Ru3bllDBfx2HvgcXNk-4" value="内服养心" style="text;html=1;strokeColor=none;fillColor=none;align=center;verticalAlign=middle;whiteSpace=wrap;rounded=0;fontStyle=1;fontSize=20;" vertex="1" parent="L_Ru3bllDBfx2HvgcXNk-23">
          <mxGeometry x="153.2770466274015" y="85.71428571428571" width="95.70789243123338" height="28.57142857142857" as="geometry" />
        </mxCell>
        <mxCell id="L_Ru3bllDBfx2HvgcXNk-5" value="&lt;br&gt;&lt;br&gt;被同情心激发（爱人）- 仁&lt;br&gt;&lt;br&gt;为了提升价值感 (自尊) - 义&lt;br&gt;&lt;br&gt;为了增强归属感(亲情/爱情/友情) -礼&lt;br&gt;&lt;br&gt;为了增强安全感 - 信&lt;br&gt;&lt;br&gt;为了自我掌控感(自主)&amp;nbsp;" style="text;html=1;strokeColor=none;fillColor=none;align=left;verticalAlign=middle;whiteSpace=wrap;rounded=0;strokeWidth=2;horizontal=1;spacingTop=5;spacing=4;spacingLeft=2;" vertex="1" parent="L_Ru3bllDBfx2HvgcXNk-23">
          <mxGeometry x="104.66" y="114.29" width="219.94" height="127.62" as="geometry" />
        </mxCell>
        <mxCell id="L_Ru3bllDBfx2HvgcXNk-6" value="为了成就(功)&amp;nbsp; &amp;nbsp; &amp;nbsp; &amp;nbsp; &amp;nbsp;" style="text;html=1;strokeColor=none;fillColor=none;align=center;verticalAlign=middle;whiteSpace=wrap;rounded=0;strokeWidth=2;horizontal=1;flipH=1;flipV=1;direction=east;rotation=-65;" vertex="1" parent="L_Ru3bllDBfx2HvgcXNk-23">
          <mxGeometry x="-2.342793320717958" y="123.8095238095238" width="107.00728340500248" height="61.43809523809524" as="geometry" />
        </mxCell>
        <mxCell id="L_Ru3bllDBfx2HvgcXNk-7" value="为了地位（名）" style="text;html=1;strokeColor=none;fillColor=none;align=center;verticalAlign=middle;whiteSpace=wrap;rounded=0;strokeWidth=2;rotation=-15;" vertex="1" parent="L_Ru3bllDBfx2HvgcXNk-23">
          <mxGeometry x="77.60220993245552" y="47.62285714285714" width="126.95944914347287" height="28.57142857142857" as="geometry" />
        </mxCell>
        <mxCell id="L_Ru3bllDBfx2HvgcXNk-8" value="为了财富（利)&amp;nbsp;" style="text;html=1;strokeColor=none;fillColor=none;align=center;verticalAlign=middle;whiteSpace=wrap;rounded=0;strokeWidth=2;rotation=45;" vertex="1" parent="L_Ru3bllDBfx2HvgcXNk-23">
          <mxGeometry x="248.98221643880254" y="76.19047619047618" width="126.95944914347287" height="28.57142857142857" as="geometry" />
        </mxCell>
        <mxCell id="L_Ru3bllDBfx2HvgcXNk-9" value="为了活得久(禄)" style="text;html=1;strokeColor=none;fillColor=none;align=center;verticalAlign=middle;whiteSpace=wrap;rounded=0;strokeWidth=2;rotation=75;" vertex="1" parent="L_Ru3bllDBfx2HvgcXNk-23">
          <mxGeometry x="287.59888527425164" y="185.25238095238092" width="126.95944914347287" height="28.57142857142857" as="geometry" />
        </mxCell>
        <mxCell id="L_Ru3bllDBfx2HvgcXNk-24" value="" style="group;fontSize=19;" vertex="1" connectable="0" parent="1">
          <mxGeometry x="-873.0000000000001" y="430" width="350.6" height="380" as="geometry" />
        </mxCell>
        <mxCell id="L_Ru3bllDBfx2HvgcXNk-10" value="" style="ellipse;whiteSpace=wrap;html=1;aspect=fixed;align=left;fillColor=#f5f5f5;fontColor=#333333;strokeColor=#666666;" vertex="1" parent="L_Ru3bllDBfx2HvgcXNk-24">
          <mxGeometry x="0.5010575555578008" width="350.09894244444223" height="350.09894244444223" as="geometry" />
        </mxCell>
        <mxCell id="L_Ru3bllDBfx2HvgcXNk-11" value="" style="ellipse;whiteSpace=wrap;html=1;aspect=fixed;fillColor=#dae8fc;strokeColor=#6c8ebf;" vertex="1" parent="L_Ru3bllDBfx2HvgcXNk-24">
          <mxGeometry x="67.18657040211822" y="72.38095238095238" width="216.7279167513214" height="216.7279167513214" as="geometry" />
        </mxCell>
        <mxCell id="L_Ru3bllDBfx2HvgcXNk-12" value="有意付出" style="text;html=1;strokeColor=none;fillColor=none;align=center;verticalAlign=middle;whiteSpace=wrap;rounded=0;fontStyle=1;fontSize=20;" vertex="1" parent="L_Ru3bllDBfx2HvgcXNk-24">
          <mxGeometry x="140.83" y="20" width="89.45" height="30" as="geometry" />
        </mxCell>
        <mxCell id="L_Ru3bllDBfx2HvgcXNk-13" value="甘心付出" style="text;html=1;strokeColor=none;fillColor=none;align=center;verticalAlign=middle;whiteSpace=wrap;rounded=0;fontStyle=1;fontSize=20;" vertex="1" parent="L_Ru3bllDBfx2HvgcXNk-24">
          <mxGeometry x="135.83" y="144.77" width="99.45" height="27.14" as="geometry" />
        </mxCell>
        <mxCell id="L_Ru3bllDBfx2HvgcXNk-25" value="" style="shape=flexArrow;endArrow=classic;html=1;rounded=0;fontSize=20;" edge="1" parent="1">
          <mxGeometry width="50" height="50" relative="1" as="geometry">
            <mxPoint x="-510.6" y="490" as="sourcePoint" />
            <mxPoint x="-373" y="490" as="targetPoint" />
          </mxGeometry>
        </mxCell>
        <mxCell id="L_Ru3bllDBfx2HvgcXNk-27" value="有所图" style="edgeLabel;html=1;align=left;verticalAlign=bottom;resizable=0;points=[];fontSize=20;" vertex="1" connectable="0" parent="L_Ru3bllDBfx2HvgcXNk-25">
          <mxGeometry x="-0.3197" y="2" relative="1" as="geometry">
            <mxPoint y="-6" as="offset" />
          </mxGeometry>
        </mxCell>
        <mxCell id="L_Ru3bllDBfx2HvgcXNk-28" value="" style="shape=flexArrow;endArrow=classic;html=1;rounded=0;fontSize=20;" edge="1" parent="1">
          <mxGeometry width="50" height="50" relative="1" as="geometry">
            <mxPoint x="-373" y="710" as="sourcePoint" />
            <mxPoint x="-513" y="710" as="targetPoint" />
          </mxGeometry>
        </mxCell>
        <mxCell id="L_Ru3bllDBfx2HvgcXNk-29" value="驱动" style="edgeLabel;html=1;align=left;verticalAlign=top;resizable=0;points=[];fontSize=20;" vertex="1" connectable="0" parent="L_Ru3bllDBfx2HvgcXNk-28">
          <mxGeometry x="0.1571" y="3" relative="1" as="geometry">
            <mxPoint as="offset" />
          </mxGeometry>
        </mxCell>
      </root>
    </mxGraphModel>
  </diagram>
</mxfile>
